<?xml version="1.0" encoding="UTF-8" standalone="no"?>
<svg
   xmlns:dc="http://purl.org/dc/elements/1.1/"
   xmlns:cc="http://creativecommons.org/ns#"
   xmlns:rdf="http://www.w3.org/1999/02/22-rdf-syntax-ns#"
   xmlns:svg="http://www.w3.org/2000/svg"
   xmlns="http://www.w3.org/2000/svg"
   version="1.1"
   id="svg2"
   height="665.21436"
   width="928.80463">
  <defs
     id="defs4">
    <marker
       style="overflow:visible"
       id="Arrow1Mend"
       refX="0"
       refY="0"
       orient="auto">
      <path
         transform="matrix(-0.4,0,0,-0.4,-4,0)"
         style="fill-rule:evenodd;stroke:#000000;stroke-width:1pt"
         d="M 0,0 5,-5 -12.5,0 5,5 0,0 Z"
         id="path20624" />
    </marker>
  </defs>
  <metadata
     id="metadata7">
    <rdf:RDF>
      <cc:Work
         rdf:about="">
        <dc:format>image/svg+xml</dc:format>
        <dc:type
           rdf:resource="http://purl.org/dc/dcmitype/StillImage" />
        <dc:title></dc:title>
      </cc:Work>
    </rdf:RDF>
  </metadata>
  <g
     transform="translate(-16.239255,-322.58234)"
     id="layer1">
    <path
       id="path4342"
       d="m 56.239257,621.45534 c 49.036353,0 50.361663,0 50.361663,0 l 0,0 0,0"
       style="fill:#000000;fill-opacity:1;stroke:#030000;stroke-width:4;stroke-miterlimit:4;stroke-dasharray:none;stroke-dashoffset:0;stroke-opacity:1" />
    <path
       id="path4342-1"
       d="m 69.166291,636.03957 c 23.862655,0 24.507592,0 24.507592,0 l 0,0 0,0"
       style="fill:#000000;fill-opacity:1;stroke:#030000;stroke-width:4;stroke-miterlimit:4;stroke-dasharray:none;stroke-dashoffset:0;stroke-opacity:1" />
    <path
       id="path4342-3"
       d="m 56.239255,650.62381 c 49.036355,0 50.361665,0 50.361665,0 l 0,0 0,0"
       style="fill:#000000;fill-opacity:1;stroke:#030000;stroke-width:4;stroke-miterlimit:4;stroke-dasharray:none;stroke-dashoffset:0;stroke-opacity:1" />
    <path
       id="path4342-1-5"
       d="m 69.166295,665.20804 c 23.862649,0 24.507586,0 24.507586,0 l 0,0 0,0"
       style="fill:#000000;fill-opacity:1;stroke:#030000;stroke-width:4;stroke-miterlimit:4;stroke-dasharray:none;stroke-dashoffset:0;stroke-opacity:1" />
    <path
       id="path4342-2"
       d="m 56.239257,679.79229 c 49.036353,0 50.361663,0 50.361663,0 l 0,0 0,0"
       style="fill:#000000;fill-opacity:1;stroke:#030000;stroke-width:4;stroke-miterlimit:4;stroke-dasharray:none;stroke-dashoffset:0;stroke-opacity:1" />
    <path
       id="path4342-1-4"
       d="m 69.166291,694.37652 c 23.862655,0 24.507592,0 24.507592,0 l 0,0 0,0"
       style="fill:#000000;fill-opacity:1;stroke:#030000;stroke-width:4;stroke-miterlimit:4;stroke-dasharray:none;stroke-dashoffset:0;stroke-opacity:1" />
    <path
       id="path3439"
       d="m 150.01746,518.99435 c 23.78568,-11.0591 43.64587,-19.1653 43.64587,-19.1653"
       style="fill:none;stroke:#000000;stroke-width:4;stroke-miterlimit:4;stroke-dasharray:none;stroke-dashoffset:0;stroke-opacity:1;marker-end:url(#Arrow1Mend)" />
    <path
       id="path5566-0-64-8-0-1-4-1-5"
       d="m 217.14082,546.35378 c 43.349,0 42.31686,0 42.31686,0"
       style="fill:#ffffff;fill-opacity:1;stroke:#0a0a0a;stroke-width:4;stroke-miterlimit:4;stroke-dasharray:none;stroke-dashoffset:0;stroke-opacity:1" />
    <path
       id="path5572-5-4-1-7-4-5-1-3"
       d="m 237.7832,546.35378 c 0.25803,-23.4807 -0.14727,-26.31786 -0.14727,-26.31786"
       style="fill:#ffffff;fill-opacity:1;stroke:#0a0a0a;stroke-width:4;stroke-miterlimit:4;stroke-dasharray:none;stroke-dashoffset:0;stroke-opacity:1" />
    <path
       id="path4149-9-9-4"
       d="m 217.65689,562.24002 c 0,0 12.65823,-8.17697 20.12631,-8.25695 7.77099,-0.0831 20.12632,8.25695 20.12632,8.25695"
       style="fill:none;stroke:#0a0a0a;stroke-width:4;stroke-miterlimit:4;stroke-dasharray:none;stroke-dashoffset:0;stroke-opacity:1" />
    <path
       id="path5572-5-4-1-7-4-4-1-9-6"
       d="m 237.61524,579.06592 c 0.25807,-23.48066 0.25807,-23.48066 0.25807,-23.48066"
       style="fill:#ffffff;fill-opacity:1;stroke:#0a0a0a;stroke-width:4;stroke-miterlimit:4;stroke-dasharray:none;stroke-dashoffset:0;stroke-opacity:1" />
    <path
       id="path20300-7-18"
       d="m 301.76213,592.67525 c 0,0 18.2266,0.90593 24.43875,6.83761 6.24905,5.9669 10.3768,17.58883 6.8088,25.45799 -5.30311,11.6959 -18.46292,20.47419 -29.90447,20.97077 -8.69314,0.3773 -14.16358,-1.18786 -20.99959,-6.57137 -4.75793,-3.74698 -9.44632,-7.08011 -9.54761,-14.37059 -0.0979,-7.05168 4.46783,-13.4877 9.57643,-17.76904 5.583,-4.67891 20.06181,-4.44649 20.06181,-4.44649"
       style="fill:none;stroke:#000000;stroke-width:4;stroke-miterlimit:4;stroke-dasharray:none;stroke-dashoffset:0;stroke-opacity:1" />
    <path
       id="path20300-1-5-6"
       d="m 302.04873,602.61398 c 0,0 18.2266,0.90593 24.43875,6.83761 6.24905,5.96689 10.3768,17.58882 6.8088,25.458 -5.30311,11.69588 -18.46292,20.47419 -29.90447,20.97077 -8.69314,0.3773 -14.16358,-1.18786 -20.99959,-6.57137 -4.75793,-3.74698 -9.44632,-7.08012 -9.54762,-14.3706 -0.0979,-7.05168 4.46784,-13.4877 9.57644,-17.76903 5.583,-4.67891 20.06181,-4.44649 20.06181,-4.44649"
       style="fill:none;stroke:#000000;stroke-width:4;stroke-miterlimit:4;stroke-dasharray:none;stroke-dashoffset:0;stroke-opacity:1" />
    <path
       id="path20300-8-3-0"
       d="m 301.76213,613.10287 c 0,0 18.2266,0.90593 24.43875,6.83761 6.24905,5.96689 10.3768,17.58882 6.8088,25.45798 -5.30311,11.6959 -18.46292,20.4742 -29.90447,20.97078 -8.69314,0.3773 -14.16358,-1.18787 -20.99959,-6.57137 -4.75793,-3.74698 -9.44632,-7.08011 -9.54761,-14.37059 -0.0979,-7.05168 4.46783,-13.4877 9.57643,-17.76904 5.583,-4.67892 20.06181,-4.44649 20.06181,-4.44649"
       style="fill:none;stroke:#000000;stroke-width:4;stroke-miterlimit:4;stroke-dasharray:none;stroke-dashoffset:0;stroke-opacity:1" />
    <path
       id="path20300-1-0-8-1"
       d="m 302.04873,623.04159 c 0,0 18.2266,0.90594 24.43875,6.83762 6.24905,5.96689 10.3768,17.58882 6.8088,25.45799 -5.30311,11.69589 -18.46292,20.47419 -29.90447,20.97078 -8.69314,0.3773 -14.16358,-1.18787 -20.99959,-6.57137 -4.75793,-3.74698 -9.44632,-7.08012 -9.54762,-14.3706 -0.0979,-7.05169 4.46784,-13.4877 9.57644,-17.76903 5.583,-4.67892 20.06181,-4.4465 20.06181,-4.4465"
       style="fill:none;stroke:#000000;stroke-width:4;stroke-miterlimit:4;stroke-dasharray:none;stroke-dashoffset:0;stroke-opacity:1" />
    <path
       id="path20300-7-18-0"
       d="m 301.76213,632.95728 c 0,0 18.2266,0.90594 24.43875,6.83762 6.24905,5.96689 10.3768,17.58882 6.8088,25.45799 -5.30311,11.69589 -18.46292,20.47419 -29.90447,20.97078 -8.69314,0.3773 -14.16358,-1.18787 -20.99959,-6.57137 -4.75793,-3.74698 -9.44632,-7.08012 -9.54761,-14.3706 -0.0979,-7.05169 4.46783,-13.4877 9.57643,-17.76903 5.583,-4.67892 20.06181,-4.4465 20.06181,-4.4465"
       style="fill:none;stroke:#000000;stroke-width:4;stroke-miterlimit:4;stroke-dasharray:none;stroke-dashoffset:0;stroke-opacity:1" />
    <path
       id="path20300-1-5-6-2"
       d="m 301.47553,642.89601 c 0,0 18.2266,0.90593 24.43875,6.83761 6.24905,5.9669 10.3768,17.58883 6.8088,25.45799 -5.30311,11.6959 -18.46292,20.47419 -29.90447,20.97078 -8.69314,0.37729 -14.16357,-1.18787 -20.99959,-6.57138 -4.75793,-3.74698 -9.44632,-7.08012 -9.54761,-14.3706 -0.0979,-7.05168 4.46783,-13.48768 9.57643,-17.76903 5.583,-4.67891 20.06181,-4.44649 20.06181,-4.44649"
       style="fill:none;stroke:#000000;stroke-width:4;stroke-miterlimit:4;stroke-dasharray:none;stroke-dashoffset:0;stroke-opacity:1" />
    <path
       id="path20300-8-3-0-9"
       d="m 301.47553,652.81171 c 0,0 18.2266,0.90593 24.43875,6.8376 6.24905,5.9669 10.3768,17.58884 6.8088,25.458 -5.30311,11.69589 -18.46292,20.47419 -29.90447,20.97078 -8.69314,0.37729 -14.16357,-1.18787 -20.99959,-6.57137 -4.75793,-3.74699 -9.44632,-7.08013 -9.54761,-14.37061 -0.0979,-7.05168 4.46783,-13.48769 9.57643,-17.76903 5.583,-4.67891 20.06181,-4.44649 20.06181,-4.44649"
       style="fill:none;stroke:#000000;stroke-width:4;stroke-miterlimit:4;stroke-dasharray:none;stroke-dashoffset:0;stroke-opacity:1" />
    <path
       id="path20300-1-0-8-1-0"
       d="m 301.18893,662.75044 c 0,0 18.22661,0.90593 24.43875,6.8376 6.24906,5.9669 10.3768,17.58884 6.8088,25.45801 -5.30311,11.69589 -18.46291,20.47418 -29.90447,20.97078"
       style="fill:none;stroke:#000000;stroke-width:4;stroke-miterlimit:4;stroke-dasharray:none;stroke-dashoffset:0;stroke-opacity:1" />
    <path
       id="path20531"
       d="m 302.80056,545.42186 53.90622,0.4053"
       style="fill:none;stroke:#000000;stroke-width:4;stroke-miterlimit:4;stroke-dasharray:none;stroke-dashoffset:0;stroke-opacity:1" />
    <path
       id="path20531-1"
       d="m 302.80056,558.39177 53.90622,0.40531"
       style="fill:none;stroke:#000000;stroke-width:4;stroke-miterlimit:4;stroke-dasharray:none;stroke-dashoffset:0;stroke-opacity:1" />
    <path
       id="path20551"
       d="m 343.56416,567.09454 0,172.25668"
       style="fill:none;stroke:#000000;stroke-width:4;stroke-miterlimit:4;stroke-dasharray:none;stroke-dashoffset:0;stroke-opacity:1" />
    <path
       id="path20551-7"
       d="m 352.94391,566.96165 0,172.25668"
       style="fill:none;stroke:#000000;stroke-width:4;stroke-miterlimit:4;stroke-dasharray:none;stroke-dashoffset:0;stroke-opacity:1" />
    <path
       id="path20571"
       d="m 340.76051,545.60996 7.16493,6.87834 6.30514,-6.30514"
       style="fill:#000000;fill-opacity:1;stroke:#000000;stroke-width:4;stroke-miterlimit:4;stroke-dasharray:none;stroke-dashoffset:0;stroke-opacity:1" />
    <path
       id="path21072"
       d="m 81.501377,620.40417 -0.405307,-100.51684 58.36462,0.81062"
       style="fill:none;stroke:#000000;stroke-width:4;stroke-miterlimit:4;stroke-dasharray:none;stroke-dashoffset:0;stroke-opacity:1" />
    <path
       id="path21074"
       d="m 303.20588,715.24669 -10e-6,65.25489 -223.731026,-2e-5 c 0.150245,-9.16511 0.06673,-66.23619 0.496947,-85.50857"
       style="fill:none;stroke:#000000;stroke-width:4;stroke-miterlimit:4;stroke-dasharray:none;stroke-dashoffset:0;stroke-opacity:1" />
    <path
       id="path21076"
       d="m 201.87841,520.69795 102.13808,0 0,24.3186"
       style="fill:none;stroke:#000000;stroke-width:4;stroke-miterlimit:4;stroke-dasharray:none;stroke-dashoffset:0;stroke-opacity:1" />
    <path
       id="path21078"
       d="m 304.01649,556.36522 -0.81061,35.66727"
       style="fill:none;stroke:#000000;stroke-width:4;stroke-miterlimit:4;stroke-dasharray:none;stroke-dashoffset:0;stroke-opacity:1" />
    <path
       id="path21080"
       d="m 236.73506,577.44133 66.47082,0.81062"
       style="fill:none;stroke:#000000;stroke-width:4;stroke-miterlimit:4;stroke-dasharray:none;stroke-dashoffset:0;stroke-opacity:1" />
    <circle
       r="4.9860415"
       transform="matrix(0,-1,-1,0,0,0)"
       id="path2818-0-7-7-5-3-1-5-9-5-5-9"
       style="font-size:25.79707909px;fill:#ffffff;fill-opacity:1;stroke:#0a0a0a;stroke-width:4;stroke-miterlimit:4;stroke-dasharray:none;stroke-dashoffset:0;stroke-opacity:1"
       cx="-520.90063"
       cy="-145.33766" />
    <circle
       r="4.9860415"
       transform="matrix(0,-1,-1,0,0,0)"
       id="path2818-0-7-7-5-3-1-5-9-5-5-9-0"
       style="font-size:25.79707909px;fill:#ffffff;fill-opacity:1;stroke:#0a0a0a;stroke-width:4;stroke-miterlimit:4;stroke-dasharray:none;stroke-dashoffset:0;stroke-opacity:1"
       cx="-520.98169"
       cy="-197.62263" />
    <circle
       r="4.9860415"
       transform="matrix(0,-1,-1,0,0,0)"
       id="path2818-0-7-7-5-3-1-5-9-5-5-9-4"
       style="font-size:25.79707909px;fill:#ffffff;fill-opacity:1;stroke:#0a0a0a;stroke-width:4;stroke-miterlimit:4;stroke-dasharray:none;stroke-dashoffset:0;stroke-opacity:1"
       cx="-545.62451"
       cy="-304.21912" />
    <circle
       r="4.9860415"
       transform="matrix(0,-1,-1,0,0,0)"
       id="path2818-0-7-7-5-3-1-5-9-5-5-9-0-6"
       style="font-size:25.79707909px;fill:#ffffff;fill-opacity:1;stroke:#0a0a0a;stroke-width:4;stroke-miterlimit:4;stroke-dasharray:none;stroke-dashoffset:0;stroke-opacity:1"
       cx="-559.08081"
       cy="-304.62445" />
    <circle
       r="3.9474127"
       transform="matrix(0,-1,-1,0,0,0)"
       id="path2818-0-7-7-5-3-1-5-9-5-5-9-4-4"
       style="font-size:25.79707909px;fill:#000000;fill-opacity:1;stroke:#0a0a0a;stroke-width:4;stroke-miterlimit:4;stroke-dasharray:none;stroke-dashoffset:0;stroke-opacity:1"
       cx="-520.73846"
       cy="-237.74831" />
    <circle
       r="3.9474127"
       transform="matrix(0,-1,-1,0,0,0)"
       id="path2818-0-7-7-5-3-1-5-9-5-5-9-4-4-3"
       style="font-size:25.79707909px;fill:#000000;fill-opacity:1;stroke:#0a0a0a;stroke-width:4;stroke-miterlimit:4;stroke-dasharray:none;stroke-dashoffset:0;stroke-opacity:1"
       cx="-578.25195"
       cy="-303.20587" />
    <ellipse
       transform="matrix(0,-1,1,0,0,0)"
       id="path2818-0-7-7-5-3-1-5-9"
       style="font-size:25.79707909px;fill:#ffffff;fill-opacity:1;stroke:#0a0a0a;stroke-width:4;stroke-miterlimit:4;stroke-dasharray:none;stroke-dashoffset:0;stroke-opacity:1"
       cx="-635.05377"
       cy="479.94324"
       rx="14.325663"
       ry="14.325664" />
    <path
       id="path20300"
       d="m 394.51955,571.15462 c 0,0 -18.2266,0.90594 -24.43875,6.8376 -6.24905,5.9669 -10.3768,17.58884 -6.8088,25.458 5.30311,11.69589 18.46292,20.47419 29.90447,20.97078 8.69314,0.3773 14.16358,-1.18787 20.99959,-6.57137 4.75793,-3.74699 9.44632,-7.08013 9.54762,-14.37061 0.0979,-7.05168 -4.46784,-13.48769 -9.57644,-17.76903 -5.583,-4.67891 -20.06181,-4.44649 -20.06181,-4.44649"
       style="fill:none;stroke:#000000;stroke-width:4;stroke-miterlimit:4;stroke-dasharray:none;stroke-dashoffset:0;stroke-opacity:1" />
    <path
       id="path20300-1"
       d="m 394.23295,581.37995 c 0,0 -18.2266,0.90593 -24.43875,6.8376 -6.24905,5.9669 -10.3768,17.58884 -6.8088,25.458 5.30311,11.69589 18.46293,20.47419 29.90447,20.97077 8.69314,0.3773 14.16358,-1.18786 20.99959,-6.57137 4.75793,-3.74698 9.44632,-7.08012 9.54762,-14.3706 0.0979,-7.05168 -4.46784,-13.4877 -9.57644,-17.76903 -5.583,-4.67891 -20.06181,-4.44649 -20.06181,-4.44649"
       style="fill:none;stroke:#000000;stroke-width:4;stroke-miterlimit:4;stroke-dasharray:none;stroke-dashoffset:0;stroke-opacity:1" />
    <path
       id="path20300-8"
       d="m 394.51955,591.58224 c 0,0 -18.2266,0.90593 -24.43875,6.8376 -6.24905,5.9669 -10.3768,17.58884 -6.8088,25.458 5.30311,11.69589 18.46292,20.47419 29.90447,20.97077 8.69314,0.3773 14.16358,-1.18786 20.99959,-6.57137 4.75793,-3.74698 9.44632,-7.08012 9.54762,-14.3706 0.0979,-7.05168 -4.46784,-13.4877 -9.57644,-17.76903 -5.583,-4.67891 -20.06181,-4.44649 -20.06181,-4.44649"
       style="fill:none;stroke:#000000;stroke-width:4;stroke-miterlimit:4;stroke-dasharray:none;stroke-dashoffset:0;stroke-opacity:1" />
    <path
       id="path20300-1-0"
       d="m 394.23295,601.80757 c 0,0 -18.2266,0.90593 -24.43875,6.8376 -6.24905,5.96689 -10.3768,17.58884 -6.8088,25.458 5.30311,11.69588 18.46293,20.47419 29.90447,20.97077 8.69314,0.3773 14.16358,-1.18786 20.99959,-6.57137 4.75793,-3.74698 9.44632,-7.08012 9.54762,-14.3706 0.0979,-7.05168 -4.46784,-13.4877 -9.57644,-17.76903 -5.583,-4.67891 -20.06181,-4.44649 -20.06181,-4.44649"
       style="fill:none;stroke:#000000;stroke-width:4;stroke-miterlimit:4;stroke-dasharray:none;stroke-dashoffset:0;stroke-opacity:1" />
    <path
       id="path20300-7"
       d="m 394.51955,612.00986 c 0,0 -18.2266,0.90593 -24.43875,6.8376 -6.24905,5.96689 -10.3768,17.58883 -6.8088,25.458 5.30311,11.69588 18.46292,20.47419 29.90447,20.97077 8.69314,0.3773 14.16358,-1.18786 20.99959,-6.57137 4.75793,-3.74698 9.44632,-7.08012 9.54762,-14.3706 0.0979,-7.05168 -4.46784,-13.4877 -9.57644,-17.76903 -5.583,-4.67891 -20.06181,-4.44649 -20.06181,-4.44649"
       style="fill:none;stroke:#000000;stroke-width:4;stroke-miterlimit:4;stroke-dasharray:none;stroke-dashoffset:0;stroke-opacity:1" />
    <path
       id="path20300-1-5"
       d="m 394.23295,621.94859 c 0,0 -18.2266,0.90593 -24.43875,6.8376 -6.24905,5.96689 -10.3768,17.58883 -6.8088,25.45799 5.30311,11.69589 18.46293,20.47419 29.90447,20.97078 8.69314,0.3773 14.16358,-1.18787 20.99959,-6.57137 4.75793,-3.74698 9.44632,-7.08012 9.54762,-14.3706 0.0979,-7.05169 -4.46784,-13.4877 -9.57644,-17.76903 -5.583,-4.67892 -20.06181,-4.4465 -20.06181,-4.4465"
       style="fill:none;stroke:#000000;stroke-width:4;stroke-miterlimit:4;stroke-dasharray:none;stroke-dashoffset:0;stroke-opacity:1" />
    <path
       id="path20300-8-3"
       d="m 394.80615,632.43748 c 0,0 -18.2266,0.90593 -24.43875,6.8376 -6.24905,5.96689 -10.3768,17.58883 -6.8088,25.45799 5.30311,11.69589 18.46292,20.47419 29.90447,20.97078 8.69314,0.3773 14.16358,-1.18787 20.99959,-6.57137 4.75793,-3.74698 9.44632,-7.08012 9.54761,-14.37061 0.0979,-7.05168 -4.46783,-13.48769 -9.57643,-17.76903 -5.583,-4.67891 -20.06181,-4.44649 -20.06181,-4.44649"
       style="fill:none;stroke:#000000;stroke-width:4;stroke-miterlimit:4;stroke-dasharray:none;stroke-dashoffset:0;stroke-opacity:1" />
    <path
       id="path20300-1-0-8"
       d="m 394.23295,642.6628 c 0,0 -18.2266,0.90593 -24.43875,6.8376 -6.24905,5.9669 -10.3768,17.58884 -6.8088,25.458 5.30311,11.69589 18.46293,20.47419 29.90447,20.97078 8.69314,0.37729 14.16358,-1.18787 20.99959,-6.57138 4.75793,-3.74698 9.44632,-7.08012 9.54762,-14.3706 0.0979,-7.05168 -4.46784,-13.48769 -9.57644,-17.76903 -5.583,-4.67891 -20.06181,-4.44649 -20.06181,-4.44649"
       style="fill:none;stroke:#000000;stroke-width:4;stroke-miterlimit:4;stroke-dasharray:none;stroke-dashoffset:0;stroke-opacity:1" />
    <path
       id="path20300-7-1"
       d="m 394.51955,652.86509 c 0,0 -18.2266,0.90593 -24.43875,6.8376 -6.24905,5.9669 -10.3768,17.58884 -6.8088,25.458 5.30311,11.69589 18.46292,20.47419 29.90447,20.97077 8.69314,0.3773 14.16358,-1.18786 20.99959,-6.57137 4.75793,-3.74698 9.44632,-7.08012 9.54762,-14.3706 0.0979,-7.05168 -4.46784,-13.4877 -9.57644,-17.76903 -5.583,-4.67891 -20.06181,-4.44649 -20.06181,-4.44649"
       style="fill:none;stroke:#000000;stroke-width:4;stroke-miterlimit:4;stroke-dasharray:none;stroke-dashoffset:0;stroke-opacity:1" />
    <path
       id="path20300-1-5-8"
       d="m 394.51955,663.09042 c 0,0 -18.2266,0.90593 -24.43875,6.8376 -6.24905,5.96689 -10.3768,17.58884 -6.8088,25.458 5.30311,11.69588 18.46292,20.47419 29.90447,20.97077 8.69314,0.3773 14.16358,-1.18786 20.99959,-6.57137 4.75793,-3.74698 9.44632,-7.08012 9.54762,-14.3706 0.0979,-7.05168 -4.46784,-13.4877 -9.57644,-17.76903 -5.583,-4.67891 -20.06181,-4.44649 -20.06181,-4.44649"
       style="fill:none;stroke:#000000;stroke-width:4;stroke-miterlimit:4;stroke-dasharray:none;stroke-dashoffset:0;stroke-opacity:1" />
    <path
       id="path20300-8-3-3"
       d="m 394.51955,673.29271 c 0,0 -18.2266,0.90593 -24.43875,6.8376 -6.24905,5.96689 -10.3768,17.58884 -6.8088,25.458 5.30311,11.69588 18.46292,20.47419 29.90447,20.97077 8.69314,0.3773 14.16358,-1.18786 20.99959,-6.57137 4.75793,-3.74698 9.44632,-7.08012 9.54762,-14.3706 0.0979,-7.05168 -4.46784,-13.4877 -9.57644,-17.76903 -5.583,-4.67891 -20.06181,-4.44649 -20.06181,-4.44649"
       style="fill:none;stroke:#000000;stroke-width:4;stroke-miterlimit:4;stroke-dasharray:none;stroke-dashoffset:0;stroke-opacity:1" />
    <path
       id="path20300-1-0-8-6"
       d="m 394.23295,683.23144 c 0,0 -18.2266,0.90593 -24.43875,6.8376 -6.24905,5.96689 -10.3768,17.58883 -6.8088,25.45799 5.30311,11.69589 19.32271,20.4742 30.76425,20.97078"
       style="fill:none;stroke:#000000;stroke-width:4;stroke-miterlimit:4;stroke-dasharray:none;stroke-dashoffset:0;stroke-opacity:1" />
    <rect
       ry="0.050618626"
       y="364.58234"
       x="440.8714"
       height="158.88147"
       width="82.683205"
       id="rect20493"
       style="fill:none;stroke:#000000;stroke-width:4;stroke-miterlimit:4;stroke-dasharray:none;stroke-dashoffset:0;stroke-opacity:1" />
    <rect
       ry="0.050618626"
       y="786.91522"
       x="440.8714"
       height="158.88147"
       width="82.683205"
       id="rect20493-0"
       style="fill:none;stroke:#000000;stroke-width:4;stroke-miterlimit:4;stroke-dasharray:none;stroke-dashoffset:0;stroke-opacity:1" />
    <ellipse
       transform="matrix(0,-1,1,0,0,0)"
       id="path2818-0-7-7-5-3-1-5-9-70"
       style="font-size:25.79707909px;fill:#ffffff;fill-opacity:1;stroke:#0a0a0a;stroke-width:4;stroke-miterlimit:4;stroke-dasharray:none;stroke-dashoffset:0;stroke-opacity:1"
       cx="-675.909"
       cy="479.94324"
       rx="14.325663"
       ry="14.325664" />
    <path
       id="path21082"
       d="m 480.59176,690.45144 0,95.65313"
       style="fill:none;stroke:#000000;stroke-width:4;stroke-miterlimit:4;stroke-dasharray:none;stroke-dashoffset:0;stroke-opacity:1" />
    <path
       id="path21084"
       d="m 480.59176,619.92752 0.81063,-95.65312"
       style="fill:none;stroke:#000000;stroke-width:4;stroke-miterlimit:4;stroke-dasharray:none;stroke-dashoffset:0;stroke-opacity:1" />
    <path
       id="path21086"
       d="m 393.04483,736.65677 87.14161,0.40531"
       style="fill:none;stroke:#000000;stroke-width:4;stroke-miterlimit:4;stroke-dasharray:none;stroke-dashoffset:0;stroke-opacity:1" />
    <path
       id="path21088"
       d="m 393.85545,570.88504 86.73631,0.4053"
       style="fill:none;stroke:#000000;stroke-width:4;stroke-miterlimit:4;stroke-dasharray:none;stroke-dashoffset:0;stroke-opacity:1" />
    <circle
       r="3.9474127"
       transform="matrix(0,-1,-1,0,0,0)"
       id="path2818-0-7-7-5-3-1-5-9-5-5-9-4-4-3-4"
       style="font-size:25.79707909px;fill:#000000;fill-opacity:1;stroke:#0a0a0a;stroke-width:4;stroke-miterlimit:4;stroke-dasharray:none;stroke-dashoffset:0;stroke-opacity:1"
       cx="-571.69562"
       cy="-480.99707" />
    <circle
       r="3.9474127"
       transform="matrix(0,-1,-1,0,0,0)"
       id="path2818-0-7-7-5-3-1-5-9-5-5-9-4-4-3-4-5"
       style="font-size:25.79707909px;fill:#000000;fill-opacity:1;stroke:#0a0a0a;stroke-width:4;stroke-miterlimit:4;stroke-dasharray:none;stroke-dashoffset:0;stroke-opacity:1"
       cx="-736.65674"
       cy="-480.18646" />
    <g
       transform="translate(12.857143,0)"
       id="g4396">
      <circle
         cy="736.82373"
         cx="-781.97583"
         style="font-size:25.79707909px;fill:none;stroke:#0a0a0a;stroke-width:4;stroke-miterlimit:4;stroke-dasharray:none;stroke-dashoffset:0;stroke-opacity:1"
         id="path2818-0-7-7-5-3-1-5-9-7"
         transform="matrix(0,-1,1,0,0,0)"
         r="10.454408" />
      <circle
         cy="765.43445"
         cx="-781.97583"
         style="font-size:25.79707909px;fill:none;stroke:#0a0a0a;stroke-width:4;stroke-miterlimit:4;stroke-dasharray:none;stroke-dashoffset:0;stroke-opacity:1"
         id="path2818-0-7-7-5-3-1-5-9-7-2"
         transform="matrix(0,-1,1,0,0,0)"
         r="10.454408" />
      <path
         style="opacity:1;fill:none;fill-opacity:1;fill-rule:evenodd;stroke:#000000;stroke-width:4;stroke-linecap:butt;stroke-linejoin:round;stroke-miterlimit:4;stroke-dasharray:none;stroke-dashoffset:0;stroke-opacity:1"
         id="path4320"
         d="M 725.80852,781.47218 A 138.57143,131.42857 0 0 1 613.67402,639.76106 138.57143,131.42857 0 0 1 752.22669,520.91453 138.57143,131.42857 0 0 1 889.65699,640.92763 138.57143,131.42857 0 0 1 776.19521,781.68516" />
    </g>
    <text
       id="text4382"
       y="859.505"
       x="148.57143"
       style="font-style:normal;font-variant:normal;font-weight:normal;font-stretch:normal;font-size:40px;line-height:125%;font-family:Arial;-inkscape-font-specification:'Arial, Normal';text-align:start;letter-spacing:0px;word-spacing:0px;writing-mode:lr-tb;text-anchor:start;fill:#000000;fill-opacity:1;stroke:none;stroke-width:1px;stroke-linecap:butt;stroke-linejoin:miter;stroke-opacity:1"
       xml:space="preserve"><tspan
         y="859.505"
         x="148.57143"
         id="tspan4384">Spark gap</tspan><tspan
         id="tspan4386"
         y="909.505"
         x="148.57143">transmitter</tspan></text>
    <text
       xml:space="preserve"
       style="font-style:normal;font-variant:normal;font-weight:normal;font-stretch:normal;font-size:40px;line-height:125%;font-family:Arial;-inkscape-font-specification:'Arial, Normal';text-align:start;letter-spacing:0px;word-spacing:0px;writing-mode:lr-tb;text-anchor:start;fill:#000000;fill-opacity:1;stroke:none;stroke-width:1px;stroke-linecap:butt;stroke-linejoin:miter;stroke-opacity:1"
       x="682.85718"
       y="858.07642"
       id="text4388"><tspan
         x="682.85718"
         y="858.07642"
         id="tspan4392">Receiver</tspan></text>
    <text
       xml:space="preserve"
       style="font-style:italic;font-variant:normal;font-weight:normal;font-stretch:normal;font-size:40px;line-height:125%;font-family:Arial;-inkscape-font-specification:'Arial, Italic';text-align:start;letter-spacing:0px;word-spacing:0px;writing-mode:lr-tb;text-anchor:start;fill:#000000;fill-opacity:1;stroke:none;stroke-width:1px;stroke-linecap:butt;stroke-linejoin:miter;stroke-opacity:1"
       x="502.85715"
       y="668.66815"
       id="text4405"><tspan
         x="502.85715"
         y="668.66815"
         id="tspan4409">S</tspan></text>
    <text
       id="text4413"
       y="458.07642"
       x="464.28571"
       style="font-style:italic;font-variant:normal;font-weight:normal;font-stretch:normal;font-size:40px;line-height:125%;font-family:Arial;-inkscape-font-specification:'Arial, Italic';text-align:start;letter-spacing:0px;word-spacing:0px;writing-mode:lr-tb;text-anchor:start;fill:#000000;fill-opacity:1;stroke:none;stroke-width:1px;stroke-linecap:butt;stroke-linejoin:miter;stroke-opacity:1"
       xml:space="preserve"><tspan
         id="tspan4415"
         y="458.07642"
         x="464.28571">C</tspan></text>
    <text
       xml:space="preserve"
       style="font-style:italic;font-variant:normal;font-weight:normal;font-stretch:normal;font-size:40px;line-height:125%;font-family:Arial;-inkscape-font-specification:'Arial, Italic';text-align:start;letter-spacing:0px;word-spacing:0px;writing-mode:lr-tb;text-anchor:start;fill:#000000;fill-opacity:1;stroke:none;stroke-width:1px;stroke-linecap:butt;stroke-linejoin:miter;stroke-opacity:1"
       x="464.28571"
       y="879.505"
       id="text4417"><tspan
         x="464.28571"
         y="879.505"
         id="tspan4419">C</tspan></text>
    <text
       xml:space="preserve"
       style="font-style:italic;font-variant:normal;font-weight:normal;font-stretch:normal;font-size:40px;line-height:125%;font-family:Arial;-inkscape-font-specification:'Arial, Italic';text-align:start;letter-spacing:0px;word-spacing:0px;writing-mode:lr-tb;text-anchor:start;fill:#000000;fill-opacity:1;stroke:none;stroke-width:1px;stroke-linecap:butt;stroke-linejoin:miter;stroke-opacity:1"
       x="119.99999"
       y="668.07642"
       id="text4421"><tspan
         x="119.99999"
         y="668.07642"
         id="tspan4423">B</tspan></text>
    <text
       xml:space="preserve"
       style="font-style:italic;font-variant:normal;font-weight:normal;font-stretch:normal;font-size:40px;line-height:125%;font-family:Arial;-inkscape-font-specification:'Arial, Italic';text-align:start;letter-spacing:0px;word-spacing:0px;writing-mode:lr-tb;text-anchor:start;fill:#000000;fill-opacity:1;stroke:none;stroke-width:1px;stroke-linecap:butt;stroke-linejoin:miter;stroke-opacity:1"
       x="334.28571"
       y="780.93359"
       id="text4425"><tspan
         x="334.28571"
         y="780.93359"
         id="tspan4427">T</tspan></text>
    <text
       id="text4429"
       y="760.93353"
       x="747.14288"
       style="font-style:italic;font-variant:normal;font-weight:normal;font-stretch:normal;font-size:40px;line-height:125%;font-family:Arial;-inkscape-font-specification:'Arial, Italic';text-align:start;letter-spacing:0px;word-spacing:0px;writing-mode:lr-tb;text-anchor:start;fill:#000000;fill-opacity:1;stroke:none;stroke-width:1px;stroke-linecap:butt;stroke-linejoin:miter;stroke-opacity:1"
       xml:space="preserve"><tspan
         id="tspan4431"
         y="760.93353"
         x="747.14288">M</tspan></text>
    <text
       id="text4439"
       y="532.23956"
       x="329.28571"
       style="font-style:italic;font-variant:normal;font-weight:normal;font-stretch:normal;font-size:40px;line-height:125%;font-family:Arial;-inkscape-font-specification:'Arial, Italic';text-align:start;letter-spacing:0px;word-spacing:0px;writing-mode:lr-tb;text-anchor:start;fill:#000000;fill-opacity:1;stroke:none;stroke-width:1px;stroke-linecap:butt;stroke-linejoin:miter;stroke-opacity:1"
       xml:space="preserve"><tspan
         id="tspan4441"
         y="532.23956"
         x="329.28571">I</tspan></text>
    <text
       id="text4443"
       y="486.64786"
       x="142.14285"
       style="font-style:italic;font-variant:normal;font-weight:normal;font-stretch:normal;font-size:40px;line-height:125%;font-family:Arial;-inkscape-font-specification:'Arial, Italic';text-align:start;letter-spacing:0px;word-spacing:0px;writing-mode:lr-tb;text-anchor:start;fill:#000000;fill-opacity:1;stroke:none;stroke-width:1px;stroke-linecap:butt;stroke-linejoin:miter;stroke-opacity:1"
       xml:space="preserve"><tspan
         id="tspan4445"
         y="486.64786"
         x="142.14285">SW</tspan></text>
  </g>
</svg>
